<svg width="20" height="21" viewBox="0 0 20 21" fill="none" xmlns="http://www.w3.org/2000/svg">
<path d="M8.09082 7.16983C8.1802 7.16983 8.26895 7.14858 8.35145 7.10671L12.4108 5.02421C12.6108 4.92171 12.7339 4.71171 12.7264 4.48483C12.7189 4.25796 12.5827 4.05671 12.3764 3.96733L8.38457 2.23983C8.20832 2.16358 8.0052 2.18046 7.84395 2.28671C7.68207 2.39171 7.58395 2.57171 7.5802 2.76608L7.55832 4.00733C4.45145 5.05733 2.39082 7.98858 2.50395 11.2892C2.59395 13.9105 4.0927 16.3198 6.41645 17.5761C6.50332 17.623 6.59645 17.6448 6.68832 17.6448C6.89457 17.6448 7.09395 17.533 7.1977 17.3367C7.3477 17.0523 7.24207 16.6992 6.96082 16.5473C4.99895 15.4861 3.73332 13.4561 3.65707 11.2486C3.56645 8.60858 5.13207 6.24858 7.53645 5.25858L7.51332 6.57546C7.5102 6.77983 7.6127 6.97171 7.78457 7.08046C7.8777 7.14046 7.98395 7.16983 8.09082 7.16983ZM10.7877 4.54921L8.6852 5.62796L8.7202 3.65421L10.7877 4.54921ZM17.4958 10.7836C17.4121 8.34983 16.1308 6.10733 14.0696 4.78421C13.7983 4.61108 13.4433 4.69171 13.2727 4.96421C13.1027 5.23608 13.1821 5.59671 13.4508 5.76921C15.1914 6.88608 16.2733 8.77546 16.3433 10.8236C16.4277 13.2723 15.0771 15.5023 12.9233 16.6023L12.8896 15.2861C12.8833 15.0817 12.7727 14.8955 12.5971 14.7942C12.4214 14.6936 12.2058 14.6923 12.0302 14.793L8.06332 17.0442C7.8677 17.1555 7.75395 17.3705 7.7702 17.5967C7.78707 17.8223 7.93145 18.018 8.14145 18.0986L12.2052 19.6561C12.2721 19.6811 12.3408 19.6936 12.4096 19.6936C12.5271 19.6936 12.6446 19.6567 12.7433 19.5861C12.9002 19.4736 12.9908 19.2892 12.9864 19.0955L12.9552 17.8717C15.7908 16.6698 17.6021 13.8736 17.4958 10.7836ZM9.7052 17.4498L11.7602 16.2836L11.8108 18.2567L9.7052 17.4498Z" fill="#FF4100"/>
</svg>
