<svg width="20" height="21" viewBox="0 0 20 21" fill="none" xmlns="http://www.w3.org/2000/svg">
<path d="M10 2.08093C5.16781 2.08093 1.25 5.99874 1.25 10.8309C1.25 15.6631 5.16781 19.5809 10 19.5809C14.8322 19.5809 18.75 15.6631 18.75 10.8309C18.75 5.99874 14.8322 2.08093 10 2.08093ZM10 2.70593C11.6009 2.70593 13.0909 3.17781 14.3506 3.98031L12.0537 6.27718C11.4089 5.98359 10.7086 5.83143 10 5.83093C9.2675 5.83093 8.57344 5.99312 7.94625 6.27718L5.64937 3.98031C6.90906 3.17781 8.39906 2.70593 10 2.70593ZM5.44625 12.8847L3.14937 15.1816C2.34687 13.9222 1.875 12.4319 1.875 10.8309C1.875 9.23 2.34687 7.73968 3.14937 6.48031L5.44625 8.77718C5.15262 9.42207 5.00046 10.1223 5 10.8309C5 11.5634 5.16219 12.2572 5.44625 12.8847ZM10 18.9559C8.39906 18.9559 6.90906 18.4841 5.64937 17.6816L7.94625 15.3847C8.59113 15.6783 9.29141 15.8305 10 15.8309C10.7325 15.8309 11.4262 15.6687 12.0537 15.3847L14.3506 17.6816C13.0909 18.4841 11.6009 18.9559 10 18.9559ZM14.0759 12.4112C13.8554 12.9772 13.5198 13.4911 13.0903 13.9206C12.6608 14.3501 12.1469 14.6857 11.5809 14.9062C11.0772 15.1036 10.541 15.2052 10 15.2059C9.44219 15.2059 8.91 15.0972 8.41906 14.9062C7.5979 14.5862 6.89217 14.0262 6.3938 13.2993C5.89544 12.5724 5.62753 11.7123 5.625 10.8309C5.62871 9.67175 6.09084 8.56111 6.9105 7.74144C7.73017 6.92177 8.84082 6.45964 10 6.45593C11.1592 6.45964 12.2698 6.92177 13.0895 7.74144C13.9092 8.56111 14.3713 9.67175 14.375 10.8309C14.375 11.3887 14.2662 11.9203 14.0759 12.4112ZM14.5537 12.8847C14.8472 12.2397 14.9994 11.5395 15 10.8309C14.9994 10.1224 14.8472 9.42212 14.5537 8.77718L16.8506 6.48031C17.6531 7.73968 18.125 9.23 18.125 10.8309C18.125 12.4319 17.6531 13.9222 16.8506 15.1816L14.5537 12.8847Z" fill="#FF4100"/>
</svg>
